<svg width="255" height="13" viewBox="0 0 255 13" fill="none" xmlns="http://www.w3.org/2000/svg">
<path d="M23.7969 0.907563C23.696 1.0084 23.3935 0.907563 23.1919 0.705882C22.9902 1.0084 22.7885 0.605042 22.6877 0.705882C22.3852 0.907563 22.1835 0.907563 21.881 0.705882C21.7802 0.605042 21.3768 1.0084 21.1752 1.0084H20.9735C20.671 0.907563 20.3685 0.907563 20.1669 0.907563C19.9652 0.907563 19.1585 1.10924 18.7552 1.21008L18.4527 1.0084C18.4527 1.0084 18.3518 1.0084 18.251 1.0084C17.9485 1.10924 17.5452 1.31092 17.2427 1.31092H16.9402C16.6376 1.10924 16.5368 1.31092 16.5368 1.61345L16.0327 1.21008L15.6293 0.907563C15.226 1.10924 14.621 1.10924 14.3185 1.0084C14.016 0.907563 13.1085 1.41176 12.806 1.31092C12.5035 1.31092 11.3943 1.61345 11.0918 1.71429V1.31092L10.8901 1.21008L10.4868 1.51261C9.98265 1.41176 9.47847 1.51261 9.27681 1.61345C9.07515 1.71429 8.47014 1.41176 8.26848 1.51261C8.06682 1.61345 7.46179 1.71429 7.26013 1.61345C7.05847 1.51261 5.84846 1.51261 5.24347 1.61345L4.63846 1.81513C4.4368 1.91597 4.13429 1.61345 3.83179 1.61345H3.63013C3.42847 1.71429 3.12596 1.71429 3.02513 1.61345L2.52097 2.01681C1.91597 1.81513 1.31094 1.81513 1.21011 2.11765C1.10928 2.42017 0.605118 3.02521 0.504288 3.02521C0.403458 3.02521 0.00012207 3.02521 0.00012207 3.12605C0.00012207 3.22689 0.100952 3.52941 0.302612 3.63025C0.504272 3.73109 0.504272 4.63866 0.907608 5.04202L0.806778 5.64706V5.7479C0.806778 5.94958 0.907623 6.05042 1.00845 6.05042C1.10928 5.94958 1.31096 5.94958 1.41179 6.15126C0.806793 6.35294 1.51262 6.7563 1.21011 7.05882C1.21011 7.05882 1.21011 7.15966 1.21011 7.26051L1.61345 7.46219C1.61345 7.76471 2.11761 8.06723 2.62178 8.16807L3.12595 7.76471L3.22679 7.66387C3.5293 7.76471 4.03345 7.86555 4.33595 7.96639C4.63846 7.96639 5.64679 7.86555 5.9493 7.96639H6.2518H6.55431C6.85681 7.96639 7.1593 7.86555 7.26013 7.86555C7.36096 7.86555 7.86514 7.86555 7.96597 7.86555C8.0668 7.86555 9.07513 7.96639 9.88181 7.96639C10.5876 7.96639 12.9068 7.96639 13.3102 7.86555C13.7135 7.86555 14.8227 8.16807 14.9235 8.16807H15.0243H15.5285C16.1335 8.06723 16.8393 8.06723 17.1418 8.06723C17.4444 8.16807 18.3519 7.96639 18.5535 7.96639C18.7552 7.96639 19.5618 8.06723 19.8643 7.96639C20.1669 7.86555 21.4777 8.06723 22.0827 8.06723H22.6877C23.2927 8.06723 23.8977 8.06723 24.5027 8.06723C24.906 8.06723 25.4102 8.16807 25.511 8.06723C25.8135 7.76471 26.116 8.16807 26.3177 7.86555C26.3177 7.76471 26.6202 7.76471 26.721 7.86555C27.0235 7.86555 27.4269 8.06723 27.5277 7.96639L27.931 7.66387C28.2336 7.86555 28.6369 7.96639 28.8385 7.86555C29.0402 7.76471 29.4435 7.76471 29.746 7.66387C29.9477 7.56303 30.6535 7.86555 30.9561 7.76471C31.1577 7.66387 31.8636 8.06723 32.0652 8.06723C32.2669 8.06723 33.1744 7.76471 33.5777 7.66387L33.9811 7.96639L34.1827 8.36975C34.7877 8.26891 35.3927 8.16807 35.5944 8.06723C35.6952 7.96639 36.3002 7.96639 36.6027 7.86555C36.9052 7.76471 38.1152 8.26891 38.7202 8.47059L39.1236 7.96639C39.1236 7.96639 39.4261 7.86555 39.5269 7.96639C39.9303 8.26891 40.4344 7.76471 40.9386 8.06723C41.0394 8.16807 41.3419 8.16807 41.5436 8.16807C41.9469 8.16807 42.2494 7.96639 42.6527 7.96639H42.9552C43.3586 8.06723 43.7619 8.16807 43.9636 8.06723C44.1653 8.06723 44.8711 8.06723 45.0728 7.96639C45.2744 7.86555 45.8794 8.16807 46.1819 8.26891C46.3836 8.36975 46.9886 7.96639 47.1903 8.06723C47.3919 8.16807 48.4003 8.06723 48.8036 8.06723H49.1061C49.4086 8.06723 49.8119 8.16807 50.1144 8.16807H50.7194C51.4253 8.06723 52.5344 8.06723 53.2403 8.06723L53.8453 8.26891L54.3495 8.36975C54.8536 8.26891 55.7611 8.16807 56.3661 8.16807H56.8703H58.4836H60.097H61.7103C62.2145 8.16807 62.8195 8.16807 63.3237 8.16807H63.6261C64.0295 8.26891 64.332 8.36975 64.4328 8.36975C64.5337 8.36975 65.0378 8.26891 65.4412 8.26891C65.8445 8.16807 68.1637 8.36975 68.3653 8.26891C68.567 8.16807 68.9703 8.26891 69.172 8.16807C69.3737 8.16807 70.1803 8.36975 70.5837 8.36975H70.987H72.197H73.6087H74.8187H76.0287H77.2387H77.642C78.0454 8.36975 79.457 8.36975 80.5662 8.47059C81.7762 8.47059 85.2046 8.77311 85.7087 8.87395L85.8096 8.77311L86.1121 8.57143C86.3137 8.77311 86.8179 8.77311 87.1204 8.57143L87.5237 8.87395C87.7254 8.97479 88.2296 8.87395 88.6329 8.87395H89.2379C89.8429 8.87395 90.6496 8.87395 90.9521 8.97479C91.2546 9.07563 92.1621 8.77311 92.4646 8.57143L92.6662 8.87395L92.9688 9.27731C93.1704 9.07563 93.6746 8.87395 93.9771 8.97479C94.2796 8.97479 95.3887 9.07563 95.6913 9.07563C95.9938 9.07563 97.0021 9.17647 97.4054 9.17647H97.8088H98.2121C98.7163 9.17647 99.3213 9.27731 99.6238 9.27731C99.9263 9.37815 100.632 9.37815 101.035 9.57983L101.54 9.47899C101.943 9.37815 102.447 9.47899 102.85 9.47899H103.355C103.859 9.47899 104.464 9.57983 104.766 9.68067H104.968H105.17C105.472 9.57983 106.48 9.47899 107.59 9.57983C108.699 9.57983 111.623 9.88235 111.825 10.084L112.127 9.78151C112.228 9.68067 112.631 9.88235 112.934 9.88235H113.236C113.539 9.88235 113.942 9.78151 114.245 9.57983C114.547 9.37815 115.455 9.88235 115.757 9.88235C116.06 9.88235 117.068 9.88235 117.37 9.88235C117.673 9.88235 118.782 9.98319 119.085 9.98319H119.387C119.69 9.98319 119.992 9.88235 120.295 9.88235H120.9C121.505 9.88235 122.412 9.88235 123.017 9.88235C123.521 9.88235 125.135 10.084 125.538 10.084H125.841H126.244C126.748 10.1849 127.353 10.1849 127.555 10.084C127.756 9.98319 128.664 10.3866 128.966 10.3866C129.269 10.3866 130.479 10.3866 130.882 10.3866C131.286 10.3866 132.899 10.3866 133.706 10.4874C134.512 10.5882 137.235 10.5882 138.041 10.5882C138.848 10.5882 141.066 10.5882 141.268 10.6891C141.47 10.7899 142.176 10.5882 142.377 10.4874C142.579 10.4874 143.386 10.7899 143.789 10.7899C144.192 10.7899 145.705 10.7899 146.31 10.7899C146.915 10.7899 149.032 10.7899 149.637 10.8908C150.242 10.9916 152.864 10.9916 153.973 10.9916H155.183H156.292C157.502 10.9916 158.813 10.9916 159.216 10.9916L159.418 11.1933C159.62 11.395 159.821 10.7899 160.225 11.1933L160.326 11.2941C160.628 11.2941 161.031 11.2941 161.233 11.395C161.435 11.4958 162.342 11.1933 162.846 11.2941H163.351H166.88C170.812 11.2941 174.342 11.1933 174.846 11.0924L175.249 11.395L175.35 11.4958C175.552 11.4958 175.854 11.395 176.157 11.395C176.459 11.395 177.266 11.395 177.367 11.4958C177.467 11.5966 177.871 11.395 178.072 11.395C178.173 11.395 178.778 11.4958 179.081 11.4958H179.383L180.392 11.2941H180.694C180.997 11.2941 181.299 11.1933 181.299 11.0924C181.4 10.9916 181.904 11.1933 182.207 11.1933H182.408C182.509 11.1933 182.711 11.0924 182.711 11.0924L183.719 11.4958C184.828 11.395 186.542 11.2941 187.652 11.2941H188.66H190.576H191.181C191.786 11.2941 192.592 11.2941 192.895 11.1933C193.197 11.1933 194.307 11.5966 194.811 11.7983L195.113 11.2941C195.113 11.1933 195.416 11.1933 195.517 11.2941L196.021 11.5966C196.525 11.4958 197.332 11.395 197.937 11.4958H198.441C198.945 11.4958 199.55 11.4958 200.054 11.4958H201.567H203.18H204.592H206.205H206.709C207.213 11.4958 208.02 11.4958 208.423 11.395C208.827 11.2941 210.037 11.6975 210.137 11.5966C210.238 11.4958 211.247 11.4958 211.852 11.4958C212.457 11.4958 214.372 11.6975 214.574 11.6975C214.776 11.6975 215.482 11.6975 215.683 11.5966C215.885 11.4958 216.591 11.7983 216.792 11.7983C216.994 11.7983 217.7 11.5966 218.003 11.6975C218.305 11.7983 219.213 11.7983 219.515 11.8992C219.818 11.8992 220.624 11.6975 220.826 11.7983C221.028 11.7983 221.935 11.8992 222.439 11.8992C222.943 11.8992 224.96 11.8992 225.868 11.7983L226.573 12.2017L226.674 12.3025C226.876 12.3025 227.38 12.2017 227.884 12.3025L228.187 12.2017L228.792 11.5966C229.094 11.7983 229.598 11.8992 229.901 11.7983L230.203 11.8992L230.607 12C231.111 12 231.615 11.8992 231.817 12C232.018 12 233.43 11.6975 234.741 11.5966L235.749 12.1008L236.153 12.3025C236.556 12.2017 237.161 12.2017 237.363 12.2017C237.665 12.2017 238.573 12.2017 238.875 12.2017C239.178 12.2017 239.783 12.1008 239.883 12.1008C239.984 12.1008 240.589 12.1008 240.993 12.1008C241.295 12.1008 242.505 12.1008 242.808 12C243.11 12 243.917 12 244.219 12C244.421 11.8992 245.026 12.2017 245.127 12.2017C245.228 12.1008 245.53 12 245.631 12.1008C245.732 12.2017 246.236 12.3025 246.538 12.3025H246.841C247.345 12.3025 247.849 12.3025 248.353 12.3025H248.656C248.757 12.1008 248.958 12 248.958 12C248.958 12 249.16 12.1008 249.16 12.2017C249.16 12.3025 249.866 12.3025 250.37 12.2017H250.773H251.076C251.479 12.2017 251.782 12.2017 251.681 12.1008C251.58 12.1008 251.479 11.8992 251.58 11.7983C251.681 11.6975 251.782 11.1933 251.681 10.9916C251.58 10.8908 251.58 10.4874 251.782 10.4874C251.983 10.4874 252.286 10.5882 252.286 10.5882C252.286 10.6891 252.286 10.7899 252.286 10.8908C252.387 10.8908 252.588 10.7899 252.79 10.6891C252.891 10.5882 253.698 10.2857 253.798 10.1849C253.899 9.98319 254.202 9.47899 253.899 9.37815C253.597 9.27731 253.294 9.98319 253.093 10.1849H252.891C252.79 10.1849 252.689 10.084 252.689 9.98319C252.689 9.88235 252.79 9.78151 252.79 9.78151C252.891 9.78151 253.093 9.78151 253.093 9.68067C253.093 9.57983 252.891 9.27731 252.588 9.17647C252.286 9.07563 251.479 8.77311 251.479 8.67227C251.479 8.57143 251.378 8.16807 251.278 8.26891C251.177 8.47059 250.673 8.77311 250.471 8.57143L250.37 8.36975C250.269 8.16807 250.269 8.16807 250.068 8.26891L249.967 8.36975C249.765 8.36975 249.261 8.36975 248.757 8.36975C248.253 8.36975 247.244 7.96639 247.345 7.96639C247.446 7.96639 247.143 7.66387 246.337 7.46219L245.53 7.76471C245.328 7.86555 245.228 7.86555 245.026 7.86555H244.925C244.723 7.76471 244.623 7.66387 244.824 7.56303C244.925 7.46218 245.127 7.05882 245.026 7.05882H244.925C244.824 7.05882 244.623 7.2605 244.522 7.15966L244.018 6.95798C243.715 7.2605 243.413 7.46219 243.312 7.46219C243.211 7.46219 242.707 7.46219 242.908 7.36135C243.009 7.2605 242.908 7.05882 242.707 6.85714C242.505 6.65546 241.698 6.65546 241.497 6.65546C241.295 6.65546 240.69 6.65546 240.488 6.65546C240.287 6.65546 239.581 6.65546 239.278 6.7563C238.976 6.85714 238.371 6.2521 238.169 6.2521C237.968 6.2521 237.665 6.55462 237.665 6.65546C237.665 6.7563 237.463 6.7563 237.463 6.65546V6.55462V5.94958C236.959 6.05042 236.253 6.2521 235.85 6.35294L235.447 6.15126L235.043 5.94958C234.539 5.84874 233.934 5.7479 233.632 5.64706C233.43 5.54622 232.926 5.94958 232.825 5.84874V5.7479L232.724 5.64706C232.623 5.64706 232.321 5.64706 232.018 5.7479H231.817H231.413C231.01 5.64706 230.607 5.54622 230.405 5.54622C230.203 5.54622 229.498 5.44538 229.195 5.44538C228.893 5.44538 227.783 5.34454 227.481 5.44538C227.178 5.44538 226.069 5.14286 225.767 5.14286C225.464 5.14286 224.557 5.2437 224.355 5.14286C224.254 5.04202 223.649 5.2437 223.448 5.14286C223.347 5.04202 222.843 5.2437 222.742 5.14286C222.641 5.04202 222.338 4.94118 222.238 5.04202C222.137 5.34454 221.733 5.44538 221.532 5.44538C221.33 5.44538 220.624 5.34454 220.322 5.34454C220.019 5.34454 219.213 5.2437 219.011 5.34454C218.809 5.34454 218.103 5.2437 218.003 5.2437C217.801 5.14286 217.196 5.14286 216.893 5.04202C216.591 4.94118 215.683 5.34454 215.582 5.44538C215.381 5.54622 215.179 5.04202 215.078 4.94118H214.977L214.574 5.14286C214.171 5.04202 213.767 4.84034 213.667 4.84034C213.465 4.94118 213.162 5.04202 212.961 5.04202L212.759 4.94118C212.557 4.94118 212.255 4.94118 212.154 4.84034C212.053 4.7395 211.448 4.84034 211.247 4.94118H211.045H210.843C210.642 4.94118 210.238 4.84034 210.037 4.84034C209.734 4.84034 208.827 4.84034 208.524 5.04202L208.121 4.7395C207.919 4.53782 207.415 4.84034 207.112 4.53782C207.112 4.53782 206.911 4.63866 206.709 4.63866L206.104 4.7395C205.398 4.63866 204.793 4.53782 204.592 4.43698C204.39 4.33613 203.886 4.53782 203.785 4.43698C203.684 4.33613 203.18 4.63866 203.079 4.63866C202.978 4.63866 202.676 4.63866 202.373 4.7395C202.071 4.84034 201.062 4.53782 200.558 4.53782L200.155 4.84034H200.054C199.953 4.84034 199.651 4.84034 199.55 4.63866C199.449 4.53782 199.147 4.43698 198.844 4.43698C198.642 4.43698 197.634 4.43698 197.13 4.53782L196.827 4.43698C196.727 4.33613 196.323 4.43698 196.122 4.43698L195.718 4.23529C195.315 4.43698 194.912 4.53782 194.811 4.53782C194.71 4.53782 194.105 4.43698 193.903 4.53782L193.702 4.63866C193.5 4.7395 193.399 4.23529 193.097 4.53782C193.097 4.53782 192.794 4.43698 192.592 4.43698H192.29C191.987 4.53782 191.685 4.53782 191.584 4.63866C191.483 4.63866 190.878 4.63866 190.475 4.63866C190.072 4.63866 189.164 4.33613 189.063 4.33613C188.962 4.33613 188.458 4.63866 188.257 4.7395L187.954 4.43698L187.551 3.93277C186.946 4.13445 186.24 4.33613 185.937 4.43698C185.736 4.43698 184.627 4.13445 184.425 4.03361C184.223 3.93277 183.517 3.93277 183.215 3.83193L183.013 3.93277L182.812 4.03361C182.61 4.23529 182.408 4.23529 182.207 4.03361L182.005 3.93277C181.904 3.93277 181.702 3.93277 181.602 4.03361C181.501 4.13445 181.097 4.23529 180.896 4.13445C180.795 4.03361 179.787 4.03361 179.484 4.13445C179.282 4.23529 178.778 4.13445 178.577 4.23529C178.375 4.23529 177.972 4.13445 177.77 4.13445C177.568 4.13445 176.963 4.03361 176.762 3.93277C176.56 3.83193 175.652 4.13445 175.249 4.23529L174.947 3.93277C174.947 3.93277 174.745 3.93277 174.644 3.93277L174.039 4.03361C173.434 4.13445 172.728 4.03361 172.426 3.93277C172.123 3.83193 171.115 4.13445 170.712 4.13445L170.409 4.03361L170.107 3.93277C169.804 3.93277 169.3 3.83193 168.997 3.83193C168.695 3.73109 167.888 4.13445 167.787 4.13445H167.687L166.88 3.83193C165.972 3.83193 164.964 3.93277 164.762 3.93277C164.561 3.93277 163.653 4.03361 163.351 4.23529L163.048 3.73109L162.947 3.52941C162.544 3.63025 162.141 3.83193 162.04 3.93277C161.939 4.03361 161.334 3.73109 161.233 3.73109C161.031 3.73109 160.527 3.93277 160.426 3.93277L160.326 3.83193L159.922 3.52941C159.519 3.73109 159.015 3.83193 158.813 3.93277C158.511 3.93277 157.805 3.83193 157.603 3.73109C157.401 3.63025 156.796 3.83193 156.696 3.83193C156.595 3.83193 156.292 3.63025 156.191 3.52941C156.091 3.42857 155.687 3.63025 155.586 3.42857L155.284 3.52941L154.981 3.63025C154.477 3.52941 153.771 3.42857 153.469 3.32773C153.166 3.22689 152.259 3.42857 152.158 3.42857C152.057 3.42857 151.452 3.42857 151.15 3.52941H150.948H150.847C150.746 3.42857 150.545 3.42857 150.545 3.52941C150.545 3.63025 150.242 4.03361 150.041 3.93277C149.839 3.83193 149.234 3.52941 149.032 3.42857C148.831 3.32773 147.721 3.32773 147.52 3.42857C147.318 3.42857 146.713 3.22689 146.411 3.12605C146.209 3.12605 145.301 3.12605 145.1 3.22689C144.898 3.32773 143.789 3.22689 143.184 3.22689L142.881 3.02521L142.579 2.82353C142.377 2.92437 142.176 3.12605 142.075 3.22689C141.974 3.32773 141.167 3.12605 140.663 3.02521C140.26 2.92437 138.848 2.92437 138.747 3.02521C138.546 3.12605 137.84 3.12605 137.638 3.02521C137.336 3.02521 136.529 2.92437 136.226 2.92437C135.924 2.92437 135.218 2.72269 135.117 2.72269C135.016 2.62185 134.613 2.92437 134.512 2.92437C134.311 2.82353 134.008 2.72269 133.806 2.72269C133.605 2.72269 133.403 2.82353 133.101 2.82353H132.798C132.496 2.82353 131.991 2.72269 131.79 2.72269C131.588 2.72269 131.084 2.92437 130.983 2.82353L130.882 2.72269H130.781C130.681 2.72269 130.277 2.72269 129.975 2.82353C129.672 2.92437 128.059 2.72269 127.857 2.72269L127.656 2.82353L127.353 2.92437C127.151 2.82353 126.748 2.72269 126.546 2.82353L126.345 2.72269L126.042 2.62185C125.74 2.42017 125.336 2.31933 125.135 2.42017C124.933 2.52101 124.328 2.42017 124.026 2.42017C123.824 2.31933 123.32 2.42017 123.118 2.31933C122.916 2.31933 122.412 2.42017 122.211 2.42017C122.009 2.42017 121.606 2.42017 121.505 2.42017C121.404 2.52101 121.001 2.62185 120.799 2.52101C120.496 2.42017 118.883 2.52101 118.278 2.42017C117.673 2.42017 116.665 2.11765 116.463 2.11765L116.16 2.21849L115.656 2.31933C115.051 2.31933 114.245 2.31933 114.043 2.31933L113.841 2.21849L113.539 2.11765C113.135 2.11765 112.631 2.11765 112.43 2.21849C112.228 2.21849 111.522 2.21849 111.32 2.21849H111.119H110.917C110.715 2.21849 110.211 2.21849 109.707 2.11765L109.203 2.01681L108.8 1.91597C108.396 1.81513 107.993 1.81513 107.892 1.81513C107.892 1.81513 107.59 1.91597 107.388 1.91597C107.186 1.91597 106.38 2.01681 106.178 2.01681C105.976 2.11765 105.472 2.21849 105.371 2.21849C105.27 2.11765 104.968 2.01681 104.766 2.01681C104.665 2.01681 104.06 1.81513 103.758 1.71429C103.455 1.71429 102.245 1.71429 101.741 1.61345C101.237 1.61345 99.8254 1.71429 99.6238 1.71429C99.4221 1.71429 98.7163 1.51261 98.6154 1.51261C98.5146 1.51261 98.2121 1.51261 98.1113 1.61345C98.0104 1.61345 97.3046 1.51261 96.6996 1.41176L96.1954 1.51261H95.7921C95.4896 1.41176 94.9854 1.31092 94.6829 1.41176H94.3804H94.0779C93.7754 1.31092 93.2712 1.31092 93.0696 1.51261C92.8679 1.61345 91.9604 1.10924 91.4563 1.10924L91.0529 1.41176C91.0529 1.41176 90.8512 1.41176 90.8512 1.31092L90.7504 1.21008C90.7504 1.10924 90.5487 1.0084 90.3471 0.907563C90.1454 0.907563 89.6412 1.10924 89.4396 1.10924C89.2379 1.21008 88.4312 1.10924 88.2296 1.21008C88.0279 1.31092 87.6246 1.21008 87.4229 1.21008C87.2212 1.21008 86.6162 1.31092 86.3137 1.31092C86.0112 1.31092 85.0029 1.10924 84.7004 1.21008L84.5996 1.10924C84.1962 0.806723 84.0954 1.31092 83.7929 1.21008L83.4904 1.10924C83.1879 0.907563 82.8854 0.705882 82.5829 0.705882C82.3812 0.705882 81.4737 0.705882 81.272 0.806723C81.0704 0.806723 80.2637 0.806723 80.062 0.806723C79.8604 0.705882 79.0537 0.907563 78.852 0.907563C78.6504 1.0084 77.8437 0.907563 77.4404 0.806723L77.037 0.907563C76.7345 1.0084 76.3312 1.0084 76.1295 0.705882L75.222 0.605042C74.3145 0.907563 73.407 0.806723 72.4995 0.605042C72.197 0.504202 71.7937 1.0084 71.4912 0.605042C71.3904 0.504202 70.7854 0.504202 70.4828 0.605042H70.2812C70.0795 0.705882 69.777 0.705882 69.6762 0.705882C69.5753 0.705882 69.2728 0.605042 69.0712 0.403361C68.8695 0.302521 68.3653 0.705882 68.1637 0.705882C67.962 0.705882 67.5587 0.504202 67.4578 0.504202C67.357 0.504202 66.9537 0.705882 66.752 0.806723H66.5503C66.3487 0.806723 66.147 0.705882 65.9453 0.605042L65.6428 0.504202C65.3403 0.605042 64.937 0.705882 64.8362 0.705882C64.7353 0.705882 64.4328 0.605042 64.332 0.605042C64.2312 0.504202 63.8278 0.705882 63.6261 0.705882H63.5253C63.4245 0.605042 63.3237 0.504202 63.2228 0.504202C63.0212 0.504202 62.7187 0.705882 62.517 0.605042C62.2145 0.605042 61.912 0.403361 61.7103 0.403361H61.4078C61.1053 0.403361 60.702 0.403361 60.5003 0.302521L60.2986 0.504202L60.1978 0.605042C59.9962 0.605042 59.492 0.705882 59.0886 0.705882C58.7861 0.705882 57.677 0.504202 57.4753 0.605042C57.2737 0.705882 55.9628 0.605042 55.1561 0.705882L54.3495 0.403361C54.1478 0.302521 53.7444 0.302521 53.5428 0.403361L53.1395 0.605042C52.8369 0.504202 52.3328 0.302521 52.1311 0.201681H51.9295C51.7278 0.201681 51.5261 0.302521 51.3244 0.403361L51.2236 0.504202C51.1228 0.605042 50.5178 0.705882 49.8119 0.705882C49.1061 0.705882 47.4928 0.302521 47.3919 0.302521C47.2911 0.302521 47.2911 0.403361 47.1903 0.403361C47.0894 0.403361 46.5853 0.403361 46.2828 0.302521C45.9803 0.302521 44.9719 0.201681 44.6694 0.201681C44.3669 0.201681 43.4594 0.504202 43.2578 0.605042C43.0561 0.705882 42.2494 0.504202 42.1486 0.605042C41.9469 0.705882 41.1403 0.302521 40.8378 0.201681L40.4344 0.504202L40.2327 0.605042C39.7286 0.504202 38.8211 0.403361 38.3169 0.302521H37.9136H37.4094C36.9052 0.403361 36.1994 0.302521 35.8969 0.10084L35.4936 0.403361C35.1911 0.605042 34.7877 0 34.2836 0.302521C33.8802 0.605042 33.5777 0.504202 33.2752 0.201681H33.1744L32.8719 0.302521C32.5694 0.302521 32.166 0.403361 31.9644 0.403361C31.8636 0.403361 31.2586 0.201681 30.9561 0.201681H30.6535H30.1494C29.5444 0.201681 28.6369 0.201681 28.0319 0.10084H27.5277H27.2252C26.8219 0.201681 26.4185 0.302521 26.2169 0.302521C26.0152 0.302521 25.6119 0.201681 25.4102 0.201681C25.3094 0.201681 24.8052 0.403361 24.7044 0.403361L24.4019 0C24.906 0.605042 23.8977 0.806723 23.7969 0.907563Z" fill="#6FB2A5"/>
<path d="M23.7969 0.907563C23.696 1.0084 23.3935 0.907563 23.1919 0.705882C22.9902 1.0084 22.7885 0.605042 22.6877 0.705882C22.3852 0.907563 22.1835 0.907563 21.881 0.705882C21.7802 0.605042 21.3768 1.0084 21.1752 1.0084H20.9735C20.671 0.907563 20.3685 0.907563 20.1669 0.907563C19.9652 0.907563 19.1585 1.10924 18.7552 1.21008L18.4527 1.0084C18.4527 1.0084 18.3518 1.0084 18.251 1.0084C17.9485 1.10924 17.5452 1.31092 17.2427 1.31092H16.9402C16.6376 1.10924 16.5368 1.31092 16.5368 1.61345L16.0327 1.21008L15.6293 0.907563C15.226 1.10924 14.621 1.10924 14.3185 1.0084C14.016 0.907563 13.1085 1.41176 12.806 1.31092C12.5035 1.31092 11.3943 1.61345 11.0918 1.71429V1.31092L10.8901 1.21008L10.4868 1.51261C9.98265 1.41176 9.47847 1.51261 9.27681 1.61345C9.07515 1.71429 8.47014 1.41176 8.26848 1.51261C8.06682 1.61345 7.46179 1.71429 7.26013 1.61345C7.05847 1.51261 5.84846 1.51261 5.24347 1.61345L4.63846 1.81513C4.4368 1.91597 4.13429 1.61345 3.83179 1.61345H3.63013C3.42847 1.71429 3.12596 1.71429 3.02513 1.61345L2.52097 2.01681C1.91597 1.81513 1.31094 1.81513 1.21011 2.11765C1.10928 2.42017 0.605118 3.02521 0.504288 3.02521C0.403458 3.02521 0.00012207 3.02521 0.00012207 3.12605C0.00012207 3.22689 0.100952 3.52941 0.302612 3.63025C0.504272 3.73109 0.504272 4.63866 0.907608 5.04202L0.806778 5.64706V5.7479C0.806778 5.94958 0.907623 6.05042 1.00845 6.05042C1.10928 5.94958 1.31096 5.94958 1.41179 6.15126C0.806793 6.35294 1.51262 6.7563 1.21011 7.05882C1.21011 7.05882 1.21011 7.15966 1.21011 7.26051L1.61345 7.46219C1.61345 7.76471 2.11761 8.06723 2.62178 8.16807L3.12595 7.76471L3.22679 7.66387C3.5293 7.76471 4.03345 7.86555 4.33595 7.96639C4.63846 7.96639 5.64679 7.86555 5.9493 7.96639H6.2518H6.55431C6.85681 7.96639 7.1593 7.86555 7.26013 7.86555C7.36096 7.86555 7.86514 7.86555 7.96597 7.86555C8.0668 7.86555 9.07513 7.96639 9.88181 7.96639C10.5876 7.96639 12.9068 7.96639 13.3102 7.86555C13.7135 7.86555 14.8227 8.16807 14.9235 8.16807H15.0243H15.5285C16.1335 8.06723 16.8393 8.06723 17.1418 8.06723C17.4444 8.16807 18.3519 7.96639 18.5535 7.96639C18.7552 7.96639 19.5618 8.06723 19.8643 7.96639C20.1669 7.86555 21.4777 8.06723 22.0827 8.06723H22.6877C23.2927 8.06723 23.8977 8.06723 24.5027 8.06723C24.906 8.06723 25.4102 8.16807 25.511 8.06723C25.8135 7.76471 26.116 8.16807 26.3177 7.86555C26.3177 7.76471 26.6202 7.76471 26.721 7.86555C27.0235 7.86555 27.4269 8.06723 27.5277 7.96639L27.931 7.66387C28.2336 7.86555 28.6369 7.96639 28.8385 7.86555C29.0402 7.76471 29.4435 7.76471 29.746 7.66387C29.9477 7.56303 30.6535 7.86555 30.9561 7.76471C31.1577 7.66387 31.8636 8.06723 32.0652 8.06723C32.2669 8.06723 33.1744 7.76471 33.5777 7.66387L33.9811 7.96639L34.1827 8.36975C34.7877 8.26891 35.3927 8.16807 35.5944 8.06723C35.6952 7.96639 36.3002 7.96639 36.6027 7.86555C36.9052 7.76471 38.1152 8.26891 38.7202 8.47059L39.1236 7.96639C39.1236 7.96639 39.4261 7.86555 39.5269 7.96639C39.9303 8.26891 40.4344 7.76471 40.9386 8.06723C41.0394 8.16807 41.3419 8.16807 41.5436 8.16807C41.9469 8.16807 42.2494 7.96639 42.6527 7.96639H42.9552C43.3586 8.06723 43.7619 8.16807 43.9636 8.06723C44.1653 8.06723 44.8711 8.06723 45.0728 7.96639C45.2744 7.86555 45.8794 8.16807 46.1819 8.26891C46.3836 8.36975 46.9886 7.96639 47.1903 8.06723C47.3919 8.16807 48.4003 8.06723 48.8036 8.06723H49.1061C49.4086 8.06723 49.8119 8.16807 50.1144 8.16807H50.7194C51.4253 8.06723 52.5344 8.06723 53.2403 8.06723L53.8453 8.26891L54.3495 8.36975C54.8536 8.26891 55.7611 8.16807 56.3661 8.16807H56.8703H58.4836H60.097H61.7103C62.2145 8.16807 62.8195 8.16807 63.3237 8.16807H63.6261C64.0295 8.26891 64.332 8.36975 64.4328 8.36975C64.5337 8.36975 65.0378 8.26891 65.4412 8.26891C65.8445 8.16807 68.1637 8.36975 68.3653 8.26891C68.567 8.16807 68.9703 8.26891 69.172 8.16807C69.3737 8.16807 70.1803 8.36975 70.5837 8.36975H70.987H72.197H73.6087H74.8187H76.0287H77.2387H77.642C78.0454 8.36975 79.457 8.36975 80.5662 8.47059C81.7762 8.47059 85.2046 8.77311 85.7087 8.87395L85.8096 8.77311L86.1121 8.57143C86.3137 8.77311 86.8179 8.77311 87.1204 8.57143L87.5237 8.87395C87.7254 8.97479 88.2296 8.87395 88.6329 8.87395H89.2379C89.8429 8.87395 90.6496 8.87395 90.9521 8.97479C91.2546 9.07563 92.1621 8.77311 92.4646 8.57143L92.6662 8.87395L92.9688 9.27731C93.1704 9.07563 93.6746 8.87395 93.9771 8.97479C94.2796 8.97479 95.3887 9.07563 95.6913 9.07563C95.9938 9.07563 97.0021 9.17647 97.4054 9.17647H97.8088H98.2121C98.7163 9.17647 99.3213 9.27731 99.6238 9.27731C99.9263 9.37815 100.632 9.37815 101.035 9.57983L101.54 9.47899C101.943 9.37815 102.447 9.47899 102.85 9.47899H103.355C103.859 9.47899 104.464 9.57983 104.766 9.68067H104.968H105.17C105.472 9.57983 106.48 9.47899 107.59 9.57983C108.699 9.57983 111.623 9.88235 111.825 10.084L112.127 9.78151C112.228 9.68067 112.631 9.88235 112.934 9.88235H113.236C113.539 9.88235 113.942 9.78151 114.245 9.57983C114.547 9.37815 115.455 9.88235 115.757 9.88235C116.06 9.88235 117.068 9.88235 117.37 9.88235C117.673 9.88235 118.782 9.98319 119.085 9.98319H119.387C119.69 9.98319 119.992 9.88235 120.295 9.88235H120.9C121.505 9.88235 122.412 9.88235 123.017 9.88235C123.521 9.88235 125.135 10.084 125.538 10.084H125.841H126.244C126.748 10.1849 127.353 10.1849 127.555 10.084C127.756 9.98319 128.664 10.3866 128.966 10.3866C129.269 10.3866 130.479 10.3866 130.882 10.3866C131.286 10.3866 132.899 10.3866 133.706 10.4874C134.512 10.5882 137.235 10.5882 138.041 10.5882C138.848 10.5882 141.066 10.5882 141.268 10.6891C141.47 10.7899 142.176 10.5882 142.377 10.4874C142.579 10.4874 143.386 10.7899 143.789 10.7899C144.192 10.7899 145.705 10.7899 146.31 10.7899C146.915 10.7899 149.032 10.7899 149.637 10.8908C150.242 10.9916 152.864 10.9916 153.973 10.9916H155.183H156.292C157.502 10.9916 158.813 10.9916 159.216 10.9916L159.418 11.1933C159.62 11.395 159.821 10.7899 160.225 11.1933L160.326 11.2941C160.628 11.2941 161.031 11.2941 161.233 11.395C161.435 11.4958 162.342 11.1933 162.846 11.2941H163.351H166.88C170.812 11.2941 174.342 11.1933 174.846 11.0924L175.249 11.395L175.35 11.4958C175.552 11.4958 175.854 11.395 176.157 11.395C176.459 11.395 177.266 11.395 177.367 11.4958C177.467 11.5966 177.871 11.395 178.072 11.395C178.173 11.395 178.778 11.4958 179.081 11.4958H179.383L180.392 11.2941H180.694C180.997 11.2941 181.299 11.1933 181.299 11.0924C181.4 10.9916 181.904 11.1933 182.207 11.1933H182.408C182.509 11.1933 182.711 11.0924 182.711 11.0924L183.719 11.4958C184.828 11.395 186.542 11.2941 187.652 11.2941H188.66H190.576H191.181C191.786 11.2941 192.592 11.2941 192.895 11.1933C193.197 11.1933 194.307 11.5966 194.811 11.7983L195.113 11.2941C195.113 11.1933 195.416 11.1933 195.517 11.2941L196.021 11.5966C196.525 11.4958 197.332 11.395 197.937 11.4958H198.441C198.945 11.4958 199.55 11.4958 200.054 11.4958H201.567H203.18H204.592H206.205H206.709C207.213 11.4958 208.02 11.4958 208.423 11.395C208.827 11.2941 210.037 11.6975 210.137 11.5966C210.238 11.4958 211.247 11.4958 211.852 11.4958C212.457 11.4958 214.372 11.6975 214.574 11.6975C214.776 11.6975 215.482 11.6975 215.683 11.5966C215.885 11.4958 216.591 11.7983 216.792 11.7983C216.994 11.7983 217.7 11.5966 218.003 11.6975C218.305 11.7983 219.213 11.7983 219.515 11.8992C219.818 11.8992 220.624 11.6975 220.826 11.7983C221.028 11.7983 221.935 11.8992 222.439 11.8992C222.943 11.8992 224.96 11.8992 225.868 11.7983L226.573 12.2017L226.674 12.3025C226.876 12.3025 227.38 12.2017 227.884 12.3025L228.187 12.2017L228.792 11.5966C229.094 11.7983 229.598 11.8992 229.901 11.7983L230.203 11.8992L230.607 12C231.111 12 231.615 11.8992 231.817 12C232.018 12 233.43 11.6975 234.741 11.5966L235.749 12.1008L236.153 12.3025C236.556 12.2017 237.161 12.2017 237.363 12.2017C237.665 12.2017 238.573 12.2017 238.875 12.2017C239.178 12.2017 239.783 12.1008 239.883 12.1008C239.984 12.1008 240.589 12.1008 240.993 12.1008C241.295 12.1008 242.505 12.1008 242.808 12C243.11 12 243.917 12 244.219 12C244.421 11.8992 245.026 12.2017 245.127 12.2017C245.228 12.1008 245.53 12 245.631 12.1008C245.732 12.2017 246.236 12.3025 246.538 12.3025H246.841C247.345 12.3025 247.849 12.3025 248.353 12.3025H248.656C248.757 12.1008 248.958 12 248.958 12C248.958 12 249.16 12.1008 249.16 12.2017C249.16 12.3025 249.866 12.3025 250.37 12.2017H250.773H251.076C251.479 12.2017 251.782 12.2017 251.681 12.1008C251.58 12.1008 251.479 11.8992 251.58 11.7983C251.681 11.6975 251.782 11.1933 251.681 10.9916C251.58 10.8908 251.58 10.4874 251.782 10.4874C251.983 10.4874 252.286 10.5882 252.286 10.5882C252.286 10.6891 252.286 10.7899 252.286 10.8908C252.387 10.8908 252.588 10.7899 252.79 10.6891C252.891 10.5882 253.698 10.2857 253.798 10.1849C253.899 9.98319 254.202 9.47899 253.899 9.37815C253.597 9.27731 253.294 9.98319 253.093 10.1849H252.891C252.79 10.1849 252.689 10.084 252.689 9.98319C252.689 9.88235 252.79 9.78151 252.79 9.78151C252.891 9.78151 253.093 9.78151 253.093 9.68067C253.093 9.57983 252.891 9.27731 252.588 9.17647C252.286 9.07563 251.479 8.77311 251.479 8.67227C251.479 8.57143 251.378 8.16807 251.278 8.26891C251.177 8.47059 250.673 8.77311 250.471 8.57143L250.37 8.36975C250.269 8.16807 250.269 8.16807 250.068 8.26891L249.967 8.36975C249.765 8.36975 249.261 8.36975 248.757 8.36975C248.253 8.36975 247.244 7.96639 247.345 7.96639C247.446 7.96639 247.143 7.66387 246.337 7.46219L245.53 7.76471C245.328 7.86555 245.228 7.86555 245.026 7.86555H244.925C244.723 7.76471 244.623 7.66387 244.824 7.56303C244.925 7.46218 245.127 7.05882 245.026 7.05882H244.925C244.824 7.05882 244.623 7.2605 244.522 7.15966L244.018 6.95798C243.715 7.2605 243.413 7.46219 243.312 7.46219C243.211 7.46219 242.707 7.46219 242.908 7.36135C243.009 7.2605 242.908 7.05882 242.707 6.85714C242.505 6.65546 241.698 6.65546 241.497 6.65546C241.295 6.65546 240.69 6.65546 240.488 6.65546C240.287 6.65546 239.581 6.65546 239.278 6.7563C238.976 6.85714 238.371 6.2521 238.169 6.2521C237.968 6.2521 237.665 6.55462 237.665 6.65546C237.665 6.7563 237.463 6.7563 237.463 6.65546V6.55462V5.94958C236.959 6.05042 236.253 6.2521 235.85 6.35294L235.447 6.15126L235.043 5.94958C234.539 5.84874 233.934 5.7479 233.632 5.64706C233.43 5.54622 232.926 5.94958 232.825 5.84874V5.7479L232.724 5.64706C232.623 5.64706 232.321 5.64706 232.018 5.7479H231.817H231.413C231.01 5.64706 230.607 5.54622 230.405 5.54622C230.203 5.54622 229.498 5.44538 229.195 5.44538C228.893 5.44538 227.783 5.34454 227.481 5.44538C227.178 5.44538 226.069 5.14286 225.767 5.14286C225.464 5.14286 224.557 5.2437 224.355 5.14286C224.254 5.04202 223.649 5.2437 223.448 5.14286C223.347 5.04202 222.843 5.2437 222.742 5.14286C222.641 5.04202 222.338 4.94118 222.238 5.04202C222.137 5.34454 221.733 5.44538 221.532 5.44538C221.33 5.44538 220.624 5.34454 220.322 5.34454C220.019 5.34454 219.213 5.2437 219.011 5.34454C218.809 5.34454 218.103 5.2437 218.003 5.2437C217.801 5.14286 217.196 5.14286 216.893 5.04202C216.591 4.94118 215.683 5.34454 215.582 5.44538C215.381 5.54622 215.179 5.04202 215.078 4.94118H214.977L214.574 5.14286C214.171 5.04202 213.767 4.84034 213.667 4.84034C213.465 4.94118 213.162 5.04202 212.961 5.04202L212.759 4.94118C212.557 4.94118 212.255 4.94118 212.154 4.84034C212.053 4.7395 211.448 4.84034 211.247 4.94118H211.045H210.843C210.642 4.94118 210.238 4.84034 210.037 4.84034C209.734 4.84034 208.827 4.84034 208.524 5.04202L208.121 4.7395C207.919 4.53782 207.415 4.84034 207.112 4.53782C207.112 4.53782 206.911 4.63866 206.709 4.63866L206.104 4.7395C205.398 4.63866 204.793 4.53782 204.592 4.43698C204.39 4.33613 203.886 4.53782 203.785 4.43698C203.684 4.33613 203.18 4.63866 203.079 4.63866C202.978 4.63866 202.676 4.63866 202.373 4.7395C202.071 4.84034 201.062 4.53782 200.558 4.53782L200.155 4.84034H200.054C199.953 4.84034 199.651 4.84034 199.55 4.63866C199.449 4.53782 199.147 4.43698 198.844 4.43698C198.642 4.43698 197.634 4.43698 197.13 4.53782L196.827 4.43698C196.727 4.33613 196.323 4.43698 196.122 4.43698L195.718 4.23529C195.315 4.43698 194.912 4.53782 194.811 4.53782C194.71 4.53782 194.105 4.43698 193.903 4.53782L193.702 4.63866C193.5 4.7395 193.399 4.23529 193.097 4.53782C193.097 4.53782 192.794 4.43698 192.592 4.43698H192.29C191.987 4.53782 191.685 4.53782 191.584 4.63866C191.483 4.63866 190.878 4.63866 190.475 4.63866C190.072 4.63866 189.164 4.33613 189.063 4.33613C188.962 4.33613 188.458 4.63866 188.257 4.7395L187.954 4.43698L187.551 3.93277C186.946 4.13445 186.24 4.33613 185.937 4.43698C185.736 4.43698 184.627 4.13445 184.425 4.03361C184.223 3.93277 183.517 3.93277 183.215 3.83193L183.013 3.93277L182.812 4.03361C182.61 4.23529 182.408 4.23529 182.207 4.03361L182.005 3.93277C181.904 3.93277 181.702 3.93277 181.602 4.03361C181.501 4.13445 181.097 4.23529 180.896 4.13445C180.795 4.03361 179.787 4.03361 179.484 4.13445C179.282 4.23529 178.778 4.13445 178.577 4.23529C178.375 4.23529 177.972 4.13445 177.77 4.13445C177.568 4.13445 176.963 4.03361 176.762 3.93277C176.56 3.83193 175.652 4.13445 175.249 4.23529L174.947 3.93277C174.947 3.93277 174.745 3.93277 174.644 3.93277L174.039 4.03361C173.434 4.13445 172.728 4.03361 172.426 3.93277C172.123 3.83193 171.115 4.13445 170.712 4.13445L170.409 4.03361L170.107 3.93277C169.804 3.93277 169.3 3.83193 168.997 3.83193C168.695 3.73109 167.888 4.13445 167.787 4.13445H167.687L166.88 3.83193C165.972 3.83193 164.964 3.93277 164.762 3.93277C164.561 3.93277 163.653 4.03361 163.351 4.23529L163.048 3.73109L162.947 3.52941C162.544 3.63025 162.141 3.83193 162.04 3.93277C161.939 4.03361 161.334 3.73109 161.233 3.73109C161.031 3.73109 160.527 3.93277 160.426 3.93277L160.326 3.83193L159.922 3.52941C159.519 3.73109 159.015 3.83193 158.813 3.93277C158.511 3.93277 157.805 3.83193 157.603 3.73109C157.401 3.63025 156.796 3.83193 156.696 3.83193C156.595 3.83193 156.292 3.63025 156.191 3.52941C156.091 3.42857 155.687 3.63025 155.586 3.42857L155.284 3.52941L154.981 3.63025C154.477 3.52941 153.771 3.42857 153.469 3.32773C153.166 3.22689 152.259 3.42857 152.158 3.42857C152.057 3.42857 151.452 3.42857 151.15 3.52941H150.948H150.847C150.746 3.42857 150.545 3.42857 150.545 3.52941C150.545 3.63025 150.242 4.03361 150.041 3.93277C149.839 3.83193 149.234 3.52941 149.032 3.42857C148.831 3.32773 147.721 3.32773 147.52 3.42857C147.318 3.42857 146.713 3.22689 146.411 3.12605C146.209 3.12605 145.301 3.12605 145.1 3.22689C144.898 3.32773 143.789 3.22689 143.184 3.22689L142.881 3.02521L142.579 2.82353C142.377 2.92437 142.176 3.12605 142.075 3.22689C141.974 3.32773 141.167 3.12605 140.663 3.02521C140.26 2.92437 138.848 2.92437 138.747 3.02521C138.546 3.12605 137.84 3.12605 137.638 3.02521C137.336 3.02521 136.529 2.92437 136.226 2.92437C135.924 2.92437 135.218 2.72269 135.117 2.72269C135.016 2.62185 134.613 2.92437 134.512 2.92437C134.311 2.82353 134.008 2.72269 133.806 2.72269C133.605 2.72269 133.403 2.82353 133.101 2.82353H132.798C132.496 2.82353 131.991 2.72269 131.79 2.72269C131.588 2.72269 131.084 2.92437 130.983 2.82353L130.882 2.72269H130.781C130.681 2.72269 130.277 2.72269 129.975 2.82353C129.672 2.92437 128.059 2.72269 127.857 2.72269L127.656 2.82353L127.353 2.92437C127.151 2.82353 126.748 2.72269 126.546 2.82353L126.345 2.72269L126.042 2.62185C125.74 2.42017 125.336 2.31933 125.135 2.42017C124.933 2.52101 124.328 2.42017 124.026 2.42017C123.824 2.31933 123.32 2.42017 123.118 2.31933C122.916 2.31933 122.412 2.42017 122.211 2.42017C122.009 2.42017 121.606 2.42017 121.505 2.42017C121.404 2.52101 121.001 2.62185 120.799 2.52101C120.496 2.42017 118.883 2.52101 118.278 2.42017C117.673 2.42017 116.665 2.11765 116.463 2.11765L116.16 2.21849L115.656 2.31933C115.051 2.31933 114.245 2.31933 114.043 2.31933L113.841 2.21849L113.539 2.11765C113.135 2.11765 112.631 2.11765 112.43 2.21849C112.228 2.21849 111.522 2.21849 111.32 2.21849H111.119H110.917C110.715 2.21849 110.211 2.21849 109.707 2.11765L109.203 2.01681L108.8 1.91597C108.396 1.81513 107.993 1.81513 107.892 1.81513C107.892 1.81513 107.59 1.91597 107.388 1.91597C107.186 1.91597 106.38 2.01681 106.178 2.01681C105.976 2.11765 105.472 2.21849 105.371 2.21849C105.27 2.11765 104.968 2.01681 104.766 2.01681C104.665 2.01681 104.06 1.81513 103.758 1.71429C103.455 1.71429 102.245 1.71429 101.741 1.61345C101.237 1.61345 99.8254 1.71429 99.6238 1.71429C99.4221 1.71429 98.7163 1.51261 98.6154 1.51261C98.5146 1.51261 98.2121 1.51261 98.1113 1.61345C98.0104 1.61345 97.3046 1.51261 96.6996 1.41176L96.1954 1.51261H95.7921C95.4896 1.41176 94.9854 1.31092 94.6829 1.41176H94.3804H94.0779C93.7754 1.31092 93.2712 1.31092 93.0696 1.51261C92.8679 1.61345 91.9604 1.10924 91.4563 1.10924L91.0529 1.41176C91.0529 1.41176 90.8512 1.41176 90.8512 1.31092L90.7504 1.21008C90.7504 1.10924 90.5487 1.0084 90.3471 0.907563C90.1454 0.907563 89.6412 1.10924 89.4396 1.10924C89.2379 1.21008 88.4312 1.10924 88.2296 1.21008C88.0279 1.31092 87.6246 1.21008 87.4229 1.21008C87.2212 1.21008 86.6162 1.31092 86.3137 1.31092C86.0112 1.31092 85.0029 1.10924 84.7004 1.21008L84.5996 1.10924C84.1962 0.806723 84.0954 1.31092 83.7929 1.21008L83.4904 1.10924C83.1879 0.907563 82.8854 0.705882 82.5829 0.705882C82.3812 0.705882 81.4737 0.705882 81.272 0.806723C81.0704 0.806723 80.2637 0.806723 80.062 0.806723C79.8604 0.705882 79.0537 0.907563 78.852 0.907563C78.6504 1.0084 77.8437 0.907563 77.4404 0.806723L77.037 0.907563C76.7345 1.0084 76.3312 1.0084 76.1295 0.705882L75.222 0.605042C74.3145 0.907563 73.407 0.806723 72.4995 0.605042C72.197 0.504202 71.7937 1.0084 71.4912 0.605042C71.3904 0.504202 70.7854 0.504202 70.4828 0.605042H70.2812C70.0795 0.705882 69.777 0.705882 69.6762 0.705882C69.5753 0.705882 69.2728 0.605042 69.0712 0.403361C68.8695 0.302521 68.3653 0.705882 68.1637 0.705882C67.962 0.705882 67.5587 0.504202 67.4578 0.504202C67.357 0.504202 66.9537 0.705882 66.752 0.806723H66.5503C66.3487 0.806723 66.147 0.705882 65.9453 0.605042L65.6428 0.504202C65.3403 0.605042 64.937 0.705882 64.8362 0.705882C64.7353 0.705882 64.4328 0.605042 64.332 0.605042C64.2312 0.504202 63.8278 0.705882 63.6261 0.705882H63.5253C63.4245 0.605042 63.3237 0.504202 63.2228 0.504202C63.0212 0.504202 62.7187 0.705882 62.517 0.605042C62.2145 0.605042 61.912 0.403361 61.7103 0.403361H61.4078C61.1053 0.403361 60.702 0.403361 60.5003 0.302521L60.2986 0.504202L60.1978 0.605042C59.9962 0.605042 59.492 0.705882 59.0886 0.705882C58.7861 0.705882 57.677 0.504202 57.4753 0.605042C57.2737 0.705882 55.9628 0.605042 55.1561 0.705882L54.3495 0.403361C54.1478 0.302521 53.7444 0.302521 53.5428 0.403361L53.1395 0.605042C52.8369 0.504202 52.3328 0.302521 52.1311 0.201681H51.9295C51.7278 0.201681 51.5261 0.302521 51.3244 0.403361L51.2236 0.504202C51.1228 0.605042 50.5178 0.705882 49.8119 0.705882C49.1061 0.705882 47.4928 0.302521 47.3919 0.302521C47.2911 0.302521 47.2911 0.403361 47.1903 0.403361C47.0894 0.403361 46.5853 0.403361 46.2828 0.302521C45.9803 0.302521 44.9719 0.201681 44.6694 0.201681C44.3669 0.201681 43.4594 0.504202 43.2578 0.605042C43.0561 0.705882 42.2494 0.504202 42.1486 0.605042C41.9469 0.705882 41.1403 0.302521 40.8378 0.201681L40.4344 0.504202L40.2327 0.605042C39.7286 0.504202 38.8211 0.403361 38.3169 0.302521H37.9136H37.4094C36.9052 0.403361 36.1994 0.302521 35.8969 0.10084L35.4936 0.403361C35.1911 0.605042 34.7877 0 34.2836 0.302521C33.8802 0.605042 33.5777 0.504202 33.2752 0.201681H33.1744L32.8719 0.302521C32.5694 0.302521 32.166 0.403361 31.9644 0.403361C31.8636 0.403361 31.2586 0.201681 30.9561 0.201681H30.6535H30.1494C29.5444 0.201681 28.6369 0.201681 28.0319 0.10084H27.5277H27.2252C26.8219 0.201681 26.4185 0.302521 26.2169 0.302521C26.0152 0.302521 25.6119 0.201681 25.4102 0.201681C25.3094 0.201681 24.8052 0.403361 24.7044 0.403361L24.4019 0C24.906 0.605042 23.8977 0.806723 23.7969 0.907563Z" fill="#D9D9D9"/>
<path d="M23.7969 0.907563C23.696 1.0084 23.3935 0.907563 23.1919 0.705882C22.9902 1.0084 22.7885 0.605042 22.6877 0.705882C22.3852 0.907563 22.1835 0.907563 21.881 0.705882C21.7802 0.605042 21.3768 1.0084 21.1752 1.0084H20.9735C20.671 0.907563 20.3685 0.907563 20.1669 0.907563C19.9652 0.907563 19.1585 1.10924 18.7552 1.21008L18.4527 1.0084C18.4527 1.0084 18.3518 1.0084 18.251 1.0084C17.9485 1.10924 17.5452 1.31092 17.2427 1.31092H16.9402C16.6376 1.10924 16.5368 1.31092 16.5368 1.61345L16.0327 1.21008L15.6293 0.907563C15.226 1.10924 14.621 1.10924 14.3185 1.0084C14.016 0.907563 13.1085 1.41176 12.806 1.31092C12.5035 1.31092 11.3943 1.61345 11.0918 1.71429V1.31092L10.8901 1.21008L10.4868 1.51261C9.98265 1.41176 9.47847 1.51261 9.27681 1.61345C9.07515 1.71429 8.47014 1.41176 8.26848 1.51261C8.06682 1.61345 7.46179 1.71429 7.26013 1.61345C7.05847 1.51261 5.84846 1.51261 5.24347 1.61345L4.63846 1.81513C4.4368 1.91597 4.13429 1.61345 3.83179 1.61345H3.63013C3.42847 1.71429 3.12596 1.71429 3.02513 1.61345L2.52097 2.01681C1.91597 1.81513 1.31094 1.81513 1.21011 2.11765C1.10928 2.42017 0.605118 3.02521 0.504288 3.02521C0.403458 3.02521 0.00012207 3.02521 0.00012207 3.12605C0.00012207 3.22689 0.100952 3.52941 0.302612 3.63025C0.504272 3.73109 0.504272 4.63866 0.907608 5.04202L0.806778 5.64706V5.7479C0.806778 5.94958 0.907623 6.05042 1.00845 6.05042C1.10928 5.94958 1.31096 5.94958 1.41179 6.15126C0.806793 6.35294 1.51262 6.7563 1.21011 7.05882C1.21011 7.05882 1.21011 7.15966 1.21011 7.26051L1.61345 7.46219C1.61345 7.76471 2.11761 8.06723 2.62178 8.16807L3.12595 7.76471L3.22679 7.66387C3.5293 7.76471 4.03345 7.86555 4.33595 7.96639C4.63846 7.96639 5.64679 7.86555 5.9493 7.96639H6.2518H6.55431C6.85681 7.96639 7.1593 7.86555 7.26013 7.86555C7.36096 7.86555 7.86514 7.86555 7.96597 7.86555C8.0668 7.86555 9.07513 7.96639 9.88181 7.96639C10.5876 7.96639 12.9068 7.96639 13.3102 7.86555C13.7135 7.86555 14.8227 8.16807 14.9235 8.16807H15.0243H15.5285C16.1335 8.06723 16.8393 8.06723 17.1418 8.06723C17.4444 8.16807 18.3519 7.96639 18.5535 7.96639C18.7552 7.96639 19.5618 8.06723 19.8643 7.96639C20.1669 7.86555 21.4777 8.06723 22.0827 8.06723H22.6877C23.2927 8.06723 23.8977 8.06723 24.5027 8.06723C24.906 8.06723 25.4102 8.16807 25.511 8.06723C25.8135 7.76471 26.116 8.16807 26.3177 7.86555C26.3177 7.76471 26.6202 7.76471 26.721 7.86555C27.0235 7.86555 27.4269 8.06723 27.5277 7.96639L27.931 7.66387C28.2336 7.86555 28.6369 7.96639 28.8385 7.86555C29.0402 7.76471 29.4435 7.76471 29.746 7.66387C29.9477 7.56303 30.6535 7.86555 30.9561 7.76471C31.1577 7.66387 31.8636 8.06723 32.0652 8.06723C32.2669 8.06723 33.1744 7.76471 33.5777 7.66387L33.9811 7.96639L34.1827 8.36975C34.7877 8.26891 35.3927 8.16807 35.5944 8.06723C35.6952 7.96639 36.3002 7.96639 36.6027 7.86555C36.9052 7.76471 38.1152 8.26891 38.7202 8.47059L39.1236 7.96639C39.1236 7.96639 39.4261 7.86555 39.5269 7.96639C39.9303 8.26891 40.4344 7.76471 40.9386 8.06723C41.0394 8.16807 41.3419 8.16807 41.5436 8.16807C41.9469 8.16807 42.2494 7.96639 42.6527 7.96639H42.9552C43.3586 8.06723 43.7619 8.16807 43.9636 8.06723C44.1653 8.06723 44.8711 8.06723 45.0728 7.96639C45.2744 7.86555 45.8794 8.16807 46.1819 8.26891C46.3836 8.36975 46.9886 7.96639 47.1903 8.06723C47.3919 8.16807 48.4003 8.06723 48.8036 8.06723H49.1061C49.4086 8.06723 49.8119 8.16807 50.1144 8.16807H50.7194C51.4253 8.06723 52.5344 8.06723 53.2403 8.06723L53.8453 8.26891L54.3495 8.36975C54.8536 8.26891 55.7611 8.16807 56.3661 8.16807H56.8703H58.4836H60.097H61.7103C62.2145 8.16807 62.8195 8.16807 63.3237 8.16807H63.6261C64.0295 8.26891 64.332 8.36975 64.4328 8.36975C64.5337 8.36975 65.0378 8.26891 65.4412 8.26891C65.8445 8.16807 68.1637 8.36975 68.3653 8.26891C68.567 8.16807 68.9703 8.26891 69.172 8.16807C69.3737 8.16807 70.1803 8.36975 70.5837 8.36975H70.987H72.197H73.6087H74.8187H76.0287H77.2387H77.642C78.0454 8.36975 79.457 8.36975 80.5662 8.47059C81.7762 8.47059 85.2046 8.77311 85.7087 8.87395L85.8096 8.77311L86.1121 8.57143C86.3137 8.77311 86.8179 8.77311 87.1204 8.57143L87.5237 8.87395C87.7254 8.97479 88.2296 8.87395 88.6329 8.87395H89.2379C89.8429 8.87395 90.6496 8.87395 90.9521 8.97479C91.2546 9.07563 92.1621 8.77311 92.4646 8.57143L92.6662 8.87395L92.9688 9.27731C93.1704 9.07563 93.6746 8.87395 93.9771 8.97479C94.2796 8.97479 95.3887 9.07563 95.6913 9.07563C95.9938 9.07563 97.0021 9.17647 97.4054 9.17647H97.8088H98.2121C98.7163 9.17647 99.3213 9.27731 99.6238 9.27731C99.9263 9.37815 100.632 9.37815 101.035 9.57983L101.54 9.47899C101.943 9.37815 102.447 9.47899 102.85 9.47899H103.355C103.859 9.47899 104.464 9.57983 104.766 9.68067H104.968H105.17C105.472 9.57983 106.48 9.47899 107.59 9.57983C108.699 9.57983 111.623 9.88235 111.825 10.084L112.127 9.78151C112.228 9.68067 112.631 9.88235 112.934 9.88235H113.236C113.539 9.88235 113.942 9.78151 114.245 9.57983C114.547 9.37815 115.455 9.88235 115.757 9.88235C116.06 9.88235 117.068 9.88235 117.37 9.88235C117.673 9.88235 118.782 9.98319 119.085 9.98319H119.387C119.69 9.98319 119.992 9.88235 120.295 9.88235H120.9C121.505 9.88235 122.412 9.88235 123.017 9.88235C123.521 9.88235 125.135 10.084 125.538 10.084H125.841H126.244C126.748 10.1849 127.353 10.1849 127.555 10.084C127.756 9.98319 128.664 10.3866 128.966 10.3866C129.269 10.3866 130.479 10.3866 130.882 10.3866C131.286 10.3866 132.899 10.3866 133.706 10.4874C134.512 10.5882 137.235 10.5882 138.041 10.5882C138.848 10.5882 141.066 10.5882 141.268 10.6891C141.47 10.7899 142.176 10.5882 142.377 10.4874C142.579 10.4874 143.386 10.7899 143.789 10.7899C144.192 10.7899 145.705 10.7899 146.31 10.7899C146.915 10.7899 149.032 10.7899 149.637 10.8908C150.242 10.9916 152.864 10.9916 153.973 10.9916H155.183H156.292C157.502 10.9916 158.813 10.9916 159.216 10.9916L159.418 11.1933C159.62 11.395 159.821 10.7899 160.225 11.1933L160.326 11.2941C160.628 11.2941 161.031 11.2941 161.233 11.395C161.435 11.4958 162.342 11.1933 162.846 11.2941H163.351H166.88C170.812 11.2941 174.342 11.1933 174.846 11.0924L175.249 11.395L175.35 11.4958C175.552 11.4958 175.854 11.395 176.157 11.395C176.459 11.395 177.266 11.395 177.367 11.4958C177.467 11.5966 177.871 11.395 178.072 11.395C178.173 11.395 178.778 11.4958 179.081 11.4958H179.383L180.392 11.2941H180.694C180.997 11.2941 181.299 11.1933 181.299 11.0924C181.4 10.9916 181.904 11.1933 182.207 11.1933H182.408C182.509 11.1933 182.711 11.0924 182.711 11.0924L183.719 11.4958C184.828 11.395 186.542 11.2941 187.652 11.2941H188.66H190.576H191.181C191.786 11.2941 192.592 11.2941 192.895 11.1933C193.197 11.1933 194.307 11.5966 194.811 11.7983L195.113 11.2941C195.113 11.1933 195.416 11.1933 195.517 11.2941L196.021 11.5966C196.525 11.4958 197.332 11.395 197.937 11.4958H198.441C198.945 11.4958 199.55 11.4958 200.054 11.4958H201.567H203.18H204.592H206.205H206.709C207.213 11.4958 208.02 11.4958 208.423 11.395C208.827 11.2941 210.037 11.6975 210.137 11.5966C210.238 11.4958 211.247 11.4958 211.852 11.4958C212.457 11.4958 214.372 11.6975 214.574 11.6975C214.776 11.6975 215.482 11.6975 215.683 11.5966C215.885 11.4958 216.591 11.7983 216.792 11.7983C216.994 11.7983 217.7 11.5966 218.003 11.6975C218.305 11.7983 219.213 11.7983 219.515 11.8992C219.818 11.8992 220.624 11.6975 220.826 11.7983C221.028 11.7983 221.935 11.8992 222.439 11.8992C222.943 11.8992 224.96 11.8992 225.868 11.7983L226.573 12.2017L226.674 12.3025C226.876 12.3025 227.38 12.2017 227.884 12.3025L228.187 12.2017L228.792 11.5966C229.094 11.7983 229.598 11.8992 229.901 11.7983L230.203 11.8992L230.607 12C231.111 12 231.615 11.8992 231.817 12C232.018 12 233.43 11.6975 234.741 11.5966L235.749 12.1008L236.153 12.3025C236.556 12.2017 237.161 12.2017 237.363 12.2017C237.665 12.2017 238.573 12.2017 238.875 12.2017C239.178 12.2017 239.783 12.1008 239.883 12.1008C239.984 12.1008 240.589 12.1008 240.993 12.1008C241.295 12.1008 242.505 12.1008 242.808 12C243.11 12 243.917 12 244.219 12C244.421 11.8992 245.026 12.2017 245.127 12.2017C245.228 12.1008 245.53 12 245.631 12.1008C245.732 12.2017 246.236 12.3025 246.538 12.3025H246.841C247.345 12.3025 247.849 12.3025 248.353 12.3025H248.656C248.757 12.1008 248.958 12 248.958 12C248.958 12 249.16 12.1008 249.16 12.2017C249.16 12.3025 249.866 12.3025 250.37 12.2017H250.773H251.076C251.479 12.2017 251.782 12.2017 251.681 12.1008C251.58 12.1008 251.479 11.8992 251.58 11.7983C251.681 11.6975 251.782 11.1933 251.681 10.9916C251.58 10.8908 251.58 10.4874 251.782 10.4874C251.983 10.4874 252.286 10.5882 252.286 10.5882C252.286 10.6891 252.286 10.7899 252.286 10.8908C252.387 10.8908 252.588 10.7899 252.79 10.6891C252.891 10.5882 253.698 10.2857 253.798 10.1849C253.899 9.98319 254.202 9.47899 253.899 9.37815C253.597 9.27731 253.294 9.98319 253.093 10.1849H252.891C252.79 10.1849 252.689 10.084 252.689 9.98319C252.689 9.88235 252.79 9.78151 252.79 9.78151C252.891 9.78151 253.093 9.78151 253.093 9.68067C253.093 9.57983 252.891 9.27731 252.588 9.17647C252.286 9.07563 251.479 8.77311 251.479 8.67227C251.479 8.57143 251.378 8.16807 251.278 8.26891C251.177 8.47059 250.673 8.77311 250.471 8.57143L250.37 8.36975C250.269 8.16807 250.269 8.16807 250.068 8.26891L249.967 8.36975C249.765 8.36975 249.261 8.36975 248.757 8.36975C248.253 8.36975 247.244 7.96639 247.345 7.96639C247.446 7.96639 247.143 7.66387 246.337 7.46219L245.53 7.76471C245.328 7.86555 245.228 7.86555 245.026 7.86555H244.925C244.723 7.76471 244.623 7.66387 244.824 7.56303C244.925 7.46218 245.127 7.05882 245.026 7.05882H244.925C244.824 7.05882 244.623 7.2605 244.522 7.15966L244.018 6.95798C243.715 7.2605 243.413 7.46219 243.312 7.46219C243.211 7.46219 242.707 7.46219 242.908 7.36135C243.009 7.2605 242.908 7.05882 242.707 6.85714C242.505 6.65546 241.698 6.65546 241.497 6.65546C241.295 6.65546 240.69 6.65546 240.488 6.65546C240.287 6.65546 239.581 6.65546 239.278 6.7563C238.976 6.85714 238.371 6.2521 238.169 6.2521C237.968 6.2521 237.665 6.55462 237.665 6.65546C237.665 6.7563 237.463 6.7563 237.463 6.65546V6.55462V5.94958C236.959 6.05042 236.253 6.2521 235.85 6.35294L235.447 6.15126L235.043 5.94958C234.539 5.84874 233.934 5.7479 233.632 5.64706C233.43 5.54622 232.926 5.94958 232.825 5.84874V5.7479L232.724 5.64706C232.623 5.64706 232.321 5.64706 232.018 5.7479H231.817H231.413C231.01 5.64706 230.607 5.54622 230.405 5.54622C230.203 5.54622 229.498 5.44538 229.195 5.44538C228.893 5.44538 227.783 5.34454 227.481 5.44538C227.178 5.44538 226.069 5.14286 225.767 5.14286C225.464 5.14286 224.557 5.2437 224.355 5.14286C224.254 5.04202 223.649 5.2437 223.448 5.14286C223.347 5.04202 222.843 5.2437 222.742 5.14286C222.641 5.04202 222.338 4.94118 222.238 5.04202C222.137 5.34454 221.733 5.44538 221.532 5.44538C221.33 5.44538 220.624 5.34454 220.322 5.34454C220.019 5.34454 219.213 5.2437 219.011 5.34454C218.809 5.34454 218.103 5.2437 218.003 5.2437C217.801 5.14286 217.196 5.14286 216.893 5.04202C216.591 4.94118 215.683 5.34454 215.582 5.44538C215.381 5.54622 215.179 5.04202 215.078 4.94118H214.977L214.574 5.14286C214.171 5.04202 213.767 4.84034 213.667 4.84034C213.465 4.94118 213.162 5.04202 212.961 5.04202L212.759 4.94118C212.557 4.94118 212.255 4.94118 212.154 4.84034C212.053 4.7395 211.448 4.84034 211.247 4.94118H211.045H210.843C210.642 4.94118 210.238 4.84034 210.037 4.84034C209.734 4.84034 208.827 4.84034 208.524 5.04202L208.121 4.7395C207.919 4.53782 207.415 4.84034 207.112 4.53782C207.112 4.53782 206.911 4.63866 206.709 4.63866L206.104 4.7395C205.398 4.63866 204.793 4.53782 204.592 4.43698C204.39 4.33613 203.886 4.53782 203.785 4.43698C203.684 4.33613 203.18 4.63866 203.079 4.63866C202.978 4.63866 202.676 4.63866 202.373 4.7395C202.071 4.84034 201.062 4.53782 200.558 4.53782L200.155 4.84034H200.054C199.953 4.84034 199.651 4.84034 199.55 4.63866C199.449 4.53782 199.147 4.43698 198.844 4.43698C198.642 4.43698 197.634 4.43698 197.13 4.53782L196.827 4.43698C196.727 4.33613 196.323 4.43698 196.122 4.43698L195.718 4.23529C195.315 4.43698 194.912 4.53782 194.811 4.53782C194.71 4.53782 194.105 4.43698 193.903 4.53782L193.702 4.63866C193.5 4.7395 193.399 4.23529 193.097 4.53782C193.097 4.53782 192.794 4.43698 192.592 4.43698H192.29C191.987 4.53782 191.685 4.53782 191.584 4.63866C191.483 4.63866 190.878 4.63866 190.475 4.63866C190.072 4.63866 189.164 4.33613 189.063 4.33613C188.962 4.33613 188.458 4.63866 188.257 4.7395L187.954 4.43698L187.551 3.93277C186.946 4.13445 186.24 4.33613 185.937 4.43698C185.736 4.43698 184.627 4.13445 184.425 4.03361C184.223 3.93277 183.517 3.93277 183.215 3.83193L183.013 3.93277L182.812 4.03361C182.61 4.23529 182.408 4.23529 182.207 4.03361L182.005 3.93277C181.904 3.93277 181.702 3.93277 181.602 4.03361C181.501 4.13445 181.097 4.23529 180.896 4.13445C180.795 4.03361 179.787 4.03361 179.484 4.13445C179.282 4.23529 178.778 4.13445 178.577 4.23529C178.375 4.23529 177.972 4.13445 177.77 4.13445C177.568 4.13445 176.963 4.03361 176.762 3.93277C176.56 3.83193 175.652 4.13445 175.249 4.23529L174.947 3.93277C174.947 3.93277 174.745 3.93277 174.644 3.93277L174.039 4.03361C173.434 4.13445 172.728 4.03361 172.426 3.93277C172.123 3.83193 171.115 4.13445 170.712 4.13445L170.409 4.03361L170.107 3.93277C169.804 3.93277 169.3 3.83193 168.997 3.83193C168.695 3.73109 167.888 4.13445 167.787 4.13445H167.687L166.88 3.83193C165.972 3.83193 164.964 3.93277 164.762 3.93277C164.561 3.93277 163.653 4.03361 163.351 4.23529L163.048 3.73109L162.947 3.52941C162.544 3.63025 162.141 3.83193 162.04 3.93277C161.939 4.03361 161.334 3.73109 161.233 3.73109C161.031 3.73109 160.527 3.93277 160.426 3.93277L160.326 3.83193L159.922 3.52941C159.519 3.73109 159.015 3.83193 158.813 3.93277C158.511 3.93277 157.805 3.83193 157.603 3.73109C157.401 3.63025 156.796 3.83193 156.696 3.83193C156.595 3.83193 156.292 3.63025 156.191 3.52941C156.091 3.42857 155.687 3.63025 155.586 3.42857L155.284 3.52941L154.981 3.63025C154.477 3.52941 153.771 3.42857 153.469 3.32773C153.166 3.22689 152.259 3.42857 152.158 3.42857C152.057 3.42857 151.452 3.42857 151.15 3.52941H150.948H150.847C150.746 3.42857 150.545 3.42857 150.545 3.52941C150.545 3.63025 150.242 4.03361 150.041 3.93277C149.839 3.83193 149.234 3.52941 149.032 3.42857C148.831 3.32773 147.721 3.32773 147.52 3.42857C147.318 3.42857 146.713 3.22689 146.411 3.12605C146.209 3.12605 145.301 3.12605 145.1 3.22689C144.898 3.32773 143.789 3.22689 143.184 3.22689L142.881 3.02521L142.579 2.82353C142.377 2.92437 142.176 3.12605 142.075 3.22689C141.974 3.32773 141.167 3.12605 140.663 3.02521C140.26 2.92437 138.848 2.92437 138.747 3.02521C138.546 3.12605 137.84 3.12605 137.638 3.02521C137.336 3.02521 136.529 2.92437 136.226 2.92437C135.924 2.92437 135.218 2.72269 135.117 2.72269C135.016 2.62185 134.613 2.92437 134.512 2.92437C134.311 2.82353 134.008 2.72269 133.806 2.72269C133.605 2.72269 133.403 2.82353 133.101 2.82353H132.798C132.496 2.82353 131.991 2.72269 131.79 2.72269C131.588 2.72269 131.084 2.92437 130.983 2.82353L130.882 2.72269H130.781C130.681 2.72269 130.277 2.72269 129.975 2.82353C129.672 2.92437 128.059 2.72269 127.857 2.72269L127.656 2.82353L127.353 2.92437C127.151 2.82353 126.748 2.72269 126.546 2.82353L126.345 2.72269L126.042 2.62185C125.74 2.42017 125.336 2.31933 125.135 2.42017C124.933 2.52101 124.328 2.42017 124.026 2.42017C123.824 2.31933 123.32 2.42017 123.118 2.31933C122.916 2.31933 122.412 2.42017 122.211 2.42017C122.009 2.42017 121.606 2.42017 121.505 2.42017C121.404 2.52101 121.001 2.62185 120.799 2.52101C120.496 2.42017 118.883 2.52101 118.278 2.42017C117.673 2.42017 116.665 2.11765 116.463 2.11765L116.16 2.21849L115.656 2.31933C115.051 2.31933 114.245 2.31933 114.043 2.31933L113.841 2.21849L113.539 2.11765C113.135 2.11765 112.631 2.11765 112.43 2.21849C112.228 2.21849 111.522 2.21849 111.32 2.21849H111.119H110.917C110.715 2.21849 110.211 2.21849 109.707 2.11765L109.203 2.01681L108.8 1.91597C108.396 1.81513 107.993 1.81513 107.892 1.81513C107.892 1.81513 107.59 1.91597 107.388 1.91597C107.186 1.91597 106.38 2.01681 106.178 2.01681C105.976 2.11765 105.472 2.21849 105.371 2.21849C105.27 2.11765 104.968 2.01681 104.766 2.01681C104.665 2.01681 104.06 1.81513 103.758 1.71429C103.455 1.71429 102.245 1.71429 101.741 1.61345C101.237 1.61345 99.8254 1.71429 99.6238 1.71429C99.4221 1.71429 98.7163 1.51261 98.6154 1.51261C98.5146 1.51261 98.2121 1.51261 98.1113 1.61345C98.0104 1.61345 97.3046 1.51261 96.6996 1.41176L96.1954 1.51261H95.7921C95.4896 1.41176 94.9854 1.31092 94.6829 1.41176H94.3804H94.0779C93.7754 1.31092 93.2712 1.31092 93.0696 1.51261C92.8679 1.61345 91.9604 1.10924 91.4563 1.10924L91.0529 1.41176C91.0529 1.41176 90.8512 1.41176 90.8512 1.31092L90.7504 1.21008C90.7504 1.10924 90.5487 1.0084 90.3471 0.907563C90.1454 0.907563 89.6412 1.10924 89.4396 1.10924C89.2379 1.21008 88.4312 1.10924 88.2296 1.21008C88.0279 1.31092 87.6246 1.21008 87.4229 1.21008C87.2212 1.21008 86.6162 1.31092 86.3137 1.31092C86.0112 1.31092 85.0029 1.10924 84.7004 1.21008L84.5996 1.10924C84.1962 0.806723 84.0954 1.31092 83.7929 1.21008L83.4904 1.10924C83.1879 0.907563 82.8854 0.705882 82.5829 0.705882C82.3812 0.705882 81.4737 0.705882 81.272 0.806723C81.0704 0.806723 80.2637 0.806723 80.062 0.806723C79.8604 0.705882 79.0537 0.907563 78.852 0.907563C78.6504 1.0084 77.8437 0.907563 77.4404 0.806723L77.037 0.907563C76.7345 1.0084 76.3312 1.0084 76.1295 0.705882L75.222 0.605042C74.3145 0.907563 73.407 0.806723 72.4995 0.605042C72.197 0.504202 71.7937 1.0084 71.4912 0.605042C71.3904 0.504202 70.7854 0.504202 70.4828 0.605042H70.2812C70.0795 0.705882 69.777 0.705882 69.6762 0.705882C69.5753 0.705882 69.2728 0.605042 69.0712 0.403361C68.8695 0.302521 68.3653 0.705882 68.1637 0.705882C67.962 0.705882 67.5587 0.504202 67.4578 0.504202C67.357 0.504202 66.9537 0.705882 66.752 0.806723H66.5503C66.3487 0.806723 66.147 0.705882 65.9453 0.605042L65.6428 0.504202C65.3403 0.605042 64.937 0.705882 64.8362 0.705882C64.7353 0.705882 64.4328 0.605042 64.332 0.605042C64.2312 0.504202 63.8278 0.705882 63.6261 0.705882H63.5253C63.4245 0.605042 63.3237 0.504202 63.2228 0.504202C63.0212 0.504202 62.7187 0.705882 62.517 0.605042C62.2145 0.605042 61.912 0.403361 61.7103 0.403361H61.4078C61.1053 0.403361 60.702 0.403361 60.5003 0.302521L60.2986 0.504202L60.1978 0.605042C59.9962 0.605042 59.492 0.705882 59.0886 0.705882C58.7861 0.705882 57.677 0.504202 57.4753 0.605042C57.2737 0.705882 55.9628 0.605042 55.1561 0.705882L54.3495 0.403361C54.1478 0.302521 53.7444 0.302521 53.5428 0.403361L53.1395 0.605042C52.8369 0.504202 52.3328 0.302521 52.1311 0.201681H51.9295C51.7278 0.201681 51.5261 0.302521 51.3244 0.403361L51.2236 0.504202C51.1228 0.605042 50.5178 0.705882 49.8119 0.705882C49.1061 0.705882 47.4928 0.302521 47.3919 0.302521C47.2911 0.302521 47.2911 0.403361 47.1903 0.403361C47.0894 0.403361 46.5853 0.403361 46.2828 0.302521C45.9803 0.302521 44.9719 0.201681 44.6694 0.201681C44.3669 0.201681 43.4594 0.504202 43.2578 0.605042C43.0561 0.705882 42.2494 0.504202 42.1486 0.605042C41.9469 0.705882 41.1403 0.302521 40.8378 0.201681L40.4344 0.504202L40.2327 0.605042C39.7286 0.504202 38.8211 0.403361 38.3169 0.302521H37.9136H37.4094C36.9052 0.403361 36.1994 0.302521 35.8969 0.10084L35.4936 0.403361C35.1911 0.605042 34.7877 0 34.2836 0.302521C33.8802 0.605042 33.5777 0.504202 33.2752 0.201681H33.1744L32.8719 0.302521C32.5694 0.302521 32.166 0.403361 31.9644 0.403361C31.8636 0.403361 31.2586 0.201681 30.9561 0.201681H30.6535H30.1494C29.5444 0.201681 28.6369 0.201681 28.0319 0.10084H27.5277H27.2252C26.8219 0.201681 26.4185 0.302521 26.2169 0.302521C26.0152 0.302521 25.6119 0.201681 25.4102 0.201681C25.3094 0.201681 24.8052 0.403361 24.7044 0.403361L24.4019 0C24.906 0.605042 23.8977 0.806723 23.7969 0.907563Z" fill="#E77622"/>
</svg>
