<svg width="35" height="28" viewBox="0 0 35 28" fill="none" xmlns="http://www.w3.org/2000/svg">
<path d="M11.4979 12.72C12.8312 13.3067 13.8712 14.1867 14.6179 15.36C15.3645 16.5333 15.7379 17.92 15.7379 19.52C15.7379 21.8133 15.0179 23.68 13.5779 25.12C12.1379 26.5067 10.2979 27.2 8.05785 27.2C5.81785 27.2 3.95119 26.48 2.45785 25.04C1.01785 23.6 0.297852 21.76 0.297852 19.52C0.297852 18.4533 0.431185 17.3867 0.697851 16.32C0.964518 15.2533 1.55119 13.6533 2.45785 11.52L7.09785 0H15.0179L11.4979 12.72ZM30.3779 12.72C31.7112 13.3067 32.7512 14.1867 33.4979 15.36C34.2445 16.5333 34.6179 17.92 34.6179 19.52C34.6179 21.8133 33.8979 23.68 32.4579 25.12C31.0179 26.5067 29.1779 27.2 26.9379 27.2C24.6979 27.2 22.8312 26.48 21.3379 25.04C19.8979 23.6 19.1779 21.76 19.1779 19.52C19.1779 18.4533 19.3112 17.3867 19.5779 16.32C19.8445 15.2533 20.4312 13.6533 21.3379 11.52L25.9779 0H33.8979L30.3779 12.72Z" fill="#4C5930"/>
</svg>
