<svg width="182" height="50" viewBox="0 0 182 50" fill="none" xmlns="http://www.w3.org/2000/svg">
<path d="M1.97023 3.66018C18.0426 4.97213 54.3066 6.85032 69.7941 8.40551C77.3095 9.30781 84.7357 10.8517 92.0912 12.6505C114.167 18.099 135.847 24.7298 157.105 33.0712C164.193 35.826 171.145 38.9617 178.143 42.1255C178.143 42.1255 178.311 41.7848 178.299 41.7842C171.825 37.4701 165.07 33.6334 158.142 30.2405C144.261 23.4793 129.686 18.4932 114.843 14.9668C102.03 11.5763 83.1625 9.25218 69.9467 7.17282C55.0045 4.49415 39.9203 2.09284 24.7281 2.1922C17.1388 2.10011 9.53155 2.38176 1.96477 3.28534L1.96961 3.67306L1.97023 3.66018Z" fill="#F1E8A0"/>
<path d="M150.142 48.2639C156.662 47.9818 163.812 46.9679 170.33 46.2208C172.011 46.0559 174.709 45.6684 176.35 45.8632L179.346 45.8516C176.678 37.7802 173.737 29.8118 170.651 21.927C169.884 19.8624 168.55 16.9311 168.068 14.7767C168.211 22.5465 170.847 30.061 172.857 37.4293C173.606 39.8677 174.391 42.2948 175.224 44.6984L177.358 42.1527C176.953 42.0687 176.511 42.0088 176.115 41.964C167.236 42.4173 158.533 45.0619 150.143 48.251L150.142 48.2639Z" fill="#F1E8A0"/>
</svg>
