<svg width="182" height="50" viewBox="0 0 182 50" fill="none" xmlns="http://www.w3.org/2000/svg">
<path d="M2.63737 46.7119C18.6635 44.9427 54.8471 41.8846 70.2835 39.9287C77.771 38.8522 85.1552 37.2256 92.4631 35.3818C114.395 29.8052 135.905 23.224 156.957 15.1833C163.976 12.5253 170.852 9.54384 177.772 6.53641C177.772 6.53641 177.948 6.82372 177.937 6.82467C171.564 10.804 164.901 14.3825 158.055 17.585C144.338 23.9695 129.889 28.8498 115.14 32.4812C102.415 35.9148 83.6189 38.6682 70.4631 40.9863C55.5961 43.8901 40.581 46.5601 25.403 47.0766C17.8239 47.4569 10.2187 47.5154 2.64017 47.0356L2.63647 46.7008L2.63737 46.7119Z" fill="#F1E8A0"/>
<path d="M149.667 2.34937C156.186 2.33436 163.351 2.92583 169.879 3.31218C171.561 3.38787 174.265 3.6153 175.899 3.38219L178.892 3.27343C176.406 10.3441 173.643 17.3367 170.734 24.263C170.013 26.075 168.745 28.6574 168.311 30.5355C168.283 23.8252 170.75 17.2363 172.596 10.7983C173.291 8.66455 174.022 6.53902 174.8 4.4319L176.989 6.54405C176.585 6.6326 176.145 6.7018 175.751 6.75612C166.872 6.71696 158.12 4.77988 149.668 2.36046L149.667 2.34937Z" fill="#F1E8A0"/>
</svg>
