<svg width="186" height="70" viewBox="0 0 186 70" fill="none" xmlns="http://www.w3.org/2000/svg">
<path d="M6.08351 69.227C23.6822 58.0005 42.9328 49.5696 62.8234 43.3401C65.534 42.4544 70.8849 40.5982 73.5483 39.6245C86.0762 35.2876 98.423 30.3973 111.289 27.0761C127.725 22.4227 144.696 19.5484 161.742 18.5275C167.415 18.2671 173.133 18.3425 178.813 18.3994L178.826 18.7516C171.33 19.8365 163.83 20.3678 156.383 21.7176C128.547 26.1444 100.799 32.0099 73.8962 40.6271C64.989 43.7429 56.3798 47.6675 47.8039 51.5759L6.25322 69.5225L6.08194 69.2155L6.08351 69.227Z" fill="#F1E8A0"/>
<path d="M156.793 3.05131C162.483 6.23226 168.435 10.2978 173.929 13.8591C175.359 14.7507 177.597 16.2995 179.15 16.8795L181.811 18.2414C175.211 24.2883 168.295 30.0949 161.319 35.7208C160.444 36.4879 159.487 37.1717 158.75 38.0853C159.163 36.9561 159.932 36.0147 160.602 35.0395C164.167 30.3585 168.304 26.1545 172.503 22.06C174.194 20.4395 175.902 18.8522 177.661 17.2933L178.493 20.3061C178.099 20.1825 177.678 20.0389 177.304 19.889C169.586 15.4963 162.937 9.4141 156.793 3.05131Z" fill="#F1E8A0"/>
</svg>
