<svg width="12" height="12" viewBox="0 0 12 12" fill="none" xmlns="http://www.w3.org/2000/svg">
<path d="M6 10C5.00544 10 4.05161 9.60491 3.34835 8.90165C2.64509 8.19839 2.25 7.24456 2.25 6.25C2.25 5.25544 2.64509 4.30161 3.34835 3.59835C4.05161 2.89509 5.00544 2.5 6 2.5C6.99456 2.5 7.94839 2.89509 8.65165 3.59835C9.35491 4.30161 9.75 5.25544 9.75 6.25C9.75 7.24456 9.35491 8.19839 8.65165 8.90165C7.94839 9.60491 6.99456 10 6 10ZM6 11.875C7.49184 11.875 8.92258 11.2824 9.97748 10.2275C11.0324 9.17258 11.625 7.74184 11.625 6.25C11.625 4.75816 11.0324 3.32742 9.97748 2.27252C8.92258 1.21763 7.49184 0.625 6 0.625C4.50816 0.625 3.07742 1.21763 2.02252 2.27252C0.967632 3.32742 0.375 4.75816 0.375 6.25C0.375 7.74184 0.967632 9.17258 2.02252 10.2275C3.07742 11.2824 4.50816 11.875 6 11.875V11.875Z" fill="#F1E8A0"/>
</svg>
