<svg width="30" height="30" viewBox="0 0 30 30" fill="none" xmlns="http://www.w3.org/2000/svg">
<g clip-path="url(#clip0_1_777)">
<path d="M6.85134 2.49055C6.74065 2.34817 6.60093 2.23096 6.44147 2.14672C6.282 2.06249 6.10644 2.01314 5.92644 2.00197C5.74644 1.9908 5.56612 2.01805 5.39746 2.08192C5.2288 2.1458 5.07566 2.24482 4.94821 2.37243L3.00946 4.31305C2.10384 5.22055 1.77009 6.50493 2.16571 7.6318C3.80773 12.296 6.47877 16.5307 9.98071 20.0218C13.4718 23.5237 17.7065 26.1947 22.3707 27.8368C23.4976 28.2324 24.782 27.8987 25.6895 26.9931L27.6282 25.0543C27.7558 24.9269 27.8548 24.7737 27.9187 24.6051C27.9826 24.4364 28.0098 24.2561 27.9987 24.0761C27.9875 23.8961 27.9382 23.7205 27.8539 23.561C27.7697 23.4016 27.6525 23.2619 27.5101 23.1512L23.1845 19.7874C23.0323 19.6694 22.8554 19.5876 22.667 19.5479C22.4786 19.5083 22.2837 19.512 22.097 19.5587L17.9907 20.5843C17.4426 20.7213 16.8684 20.714 16.3239 20.5632C15.7795 20.4124 15.2833 20.1232 14.8838 19.7237L10.2788 15.1168C9.87903 14.7175 9.58945 14.2215 9.4383 13.677C9.28715 13.1325 9.27958 12.5582 9.41634 12.0099L10.4438 7.90368C10.4905 7.71692 10.4942 7.52199 10.4546 7.33361C10.415 7.14522 10.3331 6.9683 10.2151 6.81618L6.85134 2.49055ZM3.53259 0.958678C3.8607 0.630458 4.25489 0.375798 4.68898 0.211605C5.12306 0.0474133 5.58711 -0.022553 6.0503 0.00635257C6.5135 0.0352581 6.96525 0.162374 7.37555 0.379259C7.78586 0.596145 8.14533 0.897837 8.43009 1.2643L11.7938 5.58805C12.4107 6.38118 12.6282 7.4143 12.3845 8.3893L11.3588 12.4956C11.3058 12.7082 11.3087 12.931 11.3672 13.1423C11.4256 13.3535 11.5377 13.546 11.6926 13.7012L16.2995 18.3081C16.4548 18.4632 16.6476 18.5755 16.8592 18.634C17.0709 18.6925 17.294 18.6952 17.507 18.6418L21.6113 17.6162C22.0925 17.4959 22.5947 17.4865 23.08 17.5889C23.5653 17.6912 24.021 17.9025 24.4126 18.2068L28.7363 21.5706C30.2907 22.7799 30.4332 25.0768 29.042 26.4662L27.1032 28.4049C25.7157 29.7924 23.642 30.4018 21.7088 29.7212C16.7611 27.9803 12.2687 25.1477 8.56509 21.4337C4.85126 17.7306 2.01873 13.2389 0.27759 8.2918C-0.40116 6.36055 0.208215 4.28493 1.59571 2.89743L3.53446 0.958678H3.53259Z" fill="#F1E8A0"/>
</g>
<defs>
<clipPath id="clip0_1_777">
<rect width="30" height="30" fill="white"/>
</clipPath>
</defs>
</svg>
